<?xml version="1.0" encoding="iso-8859-1"?>
<!-- Generator: Adobe Illustrator 18.0.0, SVG Export Plug-In . SVG Version: 6.00 Build 0)  -->
<!DOCTYPE svg PUBLIC "-//W3C//DTD SVG 1.1//EN" "http://www.w3.org/Graphics/SVG/1.1/DTD/svg11.dtd">
<svg version="1.1" id="Capa_1" xmlns="http://www.w3.org/2000/svg" xmlns:xlink="http://www.w3.org/1999/xlink" x="0px" y="0px"
	 viewBox="0 0 321 321" style="enable-background:new 0 0 321 321;" xml:space="preserve">
<g>
	<path d="M271.519,0H65.933C43.135,0,24.588,18.797,24.588,41.901v40.543c-9.299,1.442-16.45,9.543-16.45,19.319v20.794
		c0,9.777,7.151,17.878,16.45,19.32v9.293c-9.299,1.442-16.45,9.543-16.45,19.319v20.795c0,9.776,7.151,17.877,16.45,19.319v40.542
		c0,21.594,16.201,39.42,36.931,41.661v8.622c0,10.792,8.704,19.571,19.403,19.571h20.431c10.699,0,19.403-8.779,19.403-19.571
		v-8.38h95.938v8.38c0,10.792,8.704,19.571,19.403,19.571h20.431c10.699,0,19.404-8.779,19.404-19.571v-8.622
		c20.729-2.24,36.93-20.067,36.93-41.661V41.901C312.862,18.797,294.315,0,271.519,0z M81.138,190.855h-53V170.92h53V190.855z
		 M81.138,150.92h-36.55v-8.791h36.55V150.92z M81.138,122.129h-53v-19.936h53V122.129z M100.756,301H81.519v-7.951h19.237V301z
		 M236.694,301v-7.951h19.238V301H236.694z M292.862,251.146c0,12.077-9.575,21.902-21.344,21.902H65.933
		c-11.77,0-21.345-9.825-21.345-21.902v-40.291h36.81c1.85,13.891,13.639,24.638,27.87,24.638h118.915
		c15.512,0,28.131-12.764,28.131-28.453V86.008c0-15.688-12.619-28.452-28.131-28.452H109.268c-14.231,0-26.02,10.747-27.87,24.638
		h-36.81V41.901C44.588,29.825,54.163,20,65.933,20h205.586c11.769,0,21.344,9.825,21.344,21.901V251.146z M101.138,207.04V86.008
		c0-4.66,3.647-8.452,8.13-8.452h118.915c4.483,0,8.131,3.792,8.131,8.452V207.04c0,4.661-3.647,8.453-8.131,8.453H109.268
		C104.785,215.493,101.138,211.701,101.138,207.04z"/>
	<path d="M168.726,210.392c34.697,0,62.925-28.651,62.925-63.868c0-35.216-28.228-63.866-62.925-63.866s-62.926,28.65-62.926,63.866
		C105.8,181.74,134.028,210.392,168.726,210.392z M168.726,102.657c23.669,0,42.925,19.679,42.925,43.866
		c0,24.189-19.256,43.868-42.925,43.868S125.8,170.713,125.8,146.523C125.8,122.336,145.057,102.657,168.726,102.657z"/>
	<path d="M168.726,180.374c18.435,0,33.432-15.186,33.432-33.851c0-18.664-14.997-33.849-33.432-33.849
		c-18.436,0-33.434,15.185-33.434,33.849C135.292,165.188,150.29,180.374,168.726,180.374z M168.726,132.675
		c7.406,0,13.432,6.213,13.432,13.849c0,7.638-6.025,13.851-13.432,13.851c-7.407,0-13.434-6.213-13.434-13.851
		C155.292,138.888,161.318,132.675,168.726,132.675z"/>
</g>
<g>
</g>
<g>
</g>
<g>
</g>
<g>
</g>
<g>
</g>
<g>
</g>
<g>
</g>
<g>
</g>
<g>
</g>
<g>
</g>
<g>
</g>
<g>
</g>
<g>
</g>
<g>
</g>
<g>
</g>
</svg>
