<?xml version="1.0" ?><svg width="32px" height="32px" viewBox="0 0 32 32" xmlns="http://www.w3.org/2000/svg"><g data-name="25. Safebox" id="_25._Safebox"><path d="M29,0H5A3,3,0,0,0,2,3V7H1A1,1,0,0,0,1,9H2V19H1a1,1,0,0,0,0,2H2v4a3,3,0,0,0,3,3h.22l.62,2.49A2,2,0,0,0,7.78,32h2.44a2,2,0,0,0,1.94-1.51L12.78,28h8.44l.62,2.49A2,2,0,0,0,23.78,32h2.44a2,2,0,0,0,1.94-1.51L28.78,28H29a3,3,0,0,0,3-3V3A3,3,0,0,0,29,0ZM4,9H6V19H4ZM8,6H26V22H8Zm2.22,24H7.78l-.5-2h3.44Zm16,0H23.78l-.5-2h3.44ZM30,25a1,1,0,0,1-1,1H5a1,1,0,0,1-1-1V21H6v2a1,1,0,0,0,1,1H27a1,1,0,0,0,1-1V5a1,1,0,0,0-1-1H7A1,1,0,0,0,6,5V7H4V3A1,1,0,0,1,5,2H29a1,1,0,0,1,1,1Z"/><path d="M19,9a5,5,0,1,0,5,5A5,5,0,0,0,19,9Zm0,8a3,3,0,1,1,3-3A3,3,0,0,1,19,17Z"/></g></svg>